
<svg width="89px" height="59px" viewBox="-5 366 89 59" version="1.1" xmlns="http://www.w3.org/2000/svg" xmlns:xlink="http://www.w3.org/1999/xlink">
    <!-- Generator: Sketch 41 (35326) - http://www.bohemiancoding.com/sketch -->
    <desc>Created with Sketch.</desc>
    <defs>
        <rect id="path-1" x="0" y="0" width="89" height="59" rx="2"></rect>
        <rect id="path-3" x="0" y="0" width="38.1428571" height="27.5333333"></rect>
        <filter x="-50%" y="-50%" width="200%" height="200%" filterUnits="objectBoundingBox" id="filter-4">
            <feMorphology radius="1" operator="erode" in="SourceAlpha" result="shadowSpreadInner1"></feMorphology>
            <feOffset dx="0" dy="0" in="shadowSpreadInner1" result="shadowOffsetInner1"></feOffset>
            <feComposite in="shadowOffsetInner1" in2="SourceAlpha" operator="arithmetic" k2="-1" k3="1" result="shadowInnerInner1"></feComposite>
            <feColorMatrix values="0 0 0 0 0   0 0 0 0 0   0 0 0 0 0  0 0 0 0.2 0" type="matrix" in="shadowInnerInner1"></feColorMatrix>
        </filter>
        <rect id="path-5" x="2.11904762" y="1.96666667" width="84.7619048" height="55.0666667" rx="1"></rect>
    </defs>
    <g id="US" stroke="none" stroke-width="1" fill="none" fill-rule="evenodd" transform="translate(-5.000000, 366.000000)">
        <mask id="mask-2" fill="white">
            <use xlink:href="#path-1"></use>
        </mask>
        <use id="background" fill="#FFFFFF" xlink:href="#path-1"></use>
        <g id="rectangle" mask="url(#mask-2)">
            <use fill="#435DB0" fill-rule="evenodd" xlink:href="#path-3"></use>
            <use fill="black" fill-opacity="1" filter="url(#filter-4)" xlink:href="#path-3"></use>
        </g>
        <path d="M4.23809524,3.93333333 L4.23809524,7.86666667 L8.47619048,7.86666667 L8.47619048,3.93333333 L4.23809524,3.93333333 L4.23809524,3.93333333 Z M12.7142857,3.93333333 L12.7142857,7.86666667 L16.952381,7.86666667 L16.952381,3.93333333 L12.7142857,3.93333333 L12.7142857,3.93333333 Z M21.1904762,3.93333333 L21.1904762,7.86666667 L25.4285714,7.86666667 L25.4285714,3.93333333 L21.1904762,3.93333333 L21.1904762,3.93333333 Z M29.6666667,3.93333333 L29.6666667,7.86666667 L33.9047619,7.86666667 L33.9047619,3.93333333 L29.6666667,3.93333333 L29.6666667,3.93333333 Z M25.4285714,7.86666667 L25.4285714,11.8 L29.6666667,11.8 L29.6666667,7.86666667 L25.4285714,7.86666667 L25.4285714,7.86666667 Z M16.952381,7.86666667 L16.952381,11.8 L21.1904762,11.8 L21.1904762,7.86666667 L16.952381,7.86666667 L16.952381,7.86666667 Z M8.47619048,7.86666667 L8.47619048,11.8 L12.7142857,11.8 L12.7142857,7.86666667 L8.47619048,7.86666667 L8.47619048,7.86666667 Z M4.23809524,11.8 L4.23809524,15.7333333 L8.47619048,15.7333333 L8.47619048,11.8 L4.23809524,11.8 L4.23809524,11.8 Z M12.7142857,11.8 L12.7142857,15.7333333 L16.952381,15.7333333 L16.952381,11.8 L12.7142857,11.8 L12.7142857,11.8 Z M21.1904762,11.8 L21.1904762,15.7333333 L25.4285714,15.7333333 L25.4285714,11.8 L21.1904762,11.8 L21.1904762,11.8 Z M29.6666667,11.8 L29.6666667,15.7333333 L33.9047619,15.7333333 L33.9047619,11.8 L29.6666667,11.8 L29.6666667,11.8 Z M4.23809524,19.6666667 L4.23809524,23.6 L8.47619048,23.6 L8.47619048,19.6666667 L4.23809524,19.6666667 L4.23809524,19.6666667 Z M12.7142857,19.6666667 L12.7142857,23.6 L16.952381,23.6 L16.952381,19.6666667 L12.7142857,19.6666667 L12.7142857,19.6666667 Z M21.1904762,19.6666667 L21.1904762,23.6 L25.4285714,23.6 L25.4285714,19.6666667 L21.1904762,19.6666667 L21.1904762,19.6666667 Z M29.6666667,19.6666667 L29.6666667,23.6 L33.9047619,23.6 L33.9047619,19.6666667 L29.6666667,19.6666667 L29.6666667,19.6666667 Z M25.4285714,15.7333333 L25.4285714,19.6666667 L29.6666667,19.6666667 L29.6666667,15.7333333 L25.4285714,15.7333333 L25.4285714,15.7333333 Z M16.952381,15.7333333 L16.952381,19.6666667 L21.1904762,19.6666667 L21.1904762,15.7333333 L16.952381,15.7333333 L16.952381,15.7333333 Z M8.47619048,15.7333333 L8.47619048,19.6666667 L12.7142857,19.6666667 L12.7142857,15.7333333 L8.47619048,15.7333333 L8.47619048,15.7333333 Z" id="stars" fill="#A7B6E7" mask="url(#mask-2)"></path>
        <path d="M38.1428571,0 L38.1428571,3.93333333 L89,3.93333333 L89,0 L38.1428571,0 L38.1428571,0 Z M38.1428571,7.86666667 L38.1428571,11.8 L89,11.8 L89,7.86666667 L38.1428571,7.86666667 L38.1428571,7.86666667 Z M38.1428571,15.7333333 L38.1428571,19.6666667 L89,19.6666667 L89,15.7333333 L38.1428571,15.7333333 L38.1428571,15.7333333 Z M38.1428571,23.6 L38.1428571,27.5333333 L89,27.5333333 L89,23.6 L38.1428571,23.6 L38.1428571,23.6 Z M0,31.4666667 L0,35.4 L89,35.4 L89,31.4666667 L0,31.4666667 L0,31.4666667 Z M0,39.3333333 L0,43.2666667 L89,43.2666667 L89,39.3333333 L0,39.3333333 L0,39.3333333 Z M0,47.2 L0,51.1333333 L89,51.1333333 L89,47.2 L0,47.2 L0,47.2 Z M0,55.0666667 L0,59 L89,59 L89,55.0666667 L0,55.0666667 L0,55.0666667 Z" id="stripe" fill="#ED4C49" mask="url(#mask-2)"></path>
        <mask id="mask-6" fill="white">
            <use xlink:href="#path-5"></use>
        </mask>
        <use id="overlay" stroke-opacity="0.156646286" stroke="#2F343A" xlink:href="#path-5"></use>
    </g>
</svg>
